<svg id="Layer_1" data-name="Layer 1" xmlns="http://www.w3.org/2000/svg" viewBox="0 0 971.5 847.32"><defs><style>.cls-1{fill:#ea3d3d;}.cls-2{fill:#009245;}</style></defs><path class="cls-1" d="M1125.09,556.79c-16.06,233.77-325.54,419.15-573,375.34C274.74,883,154.25,745.57,154.25,532.34S345.39,141.79,627.09,141.79,1139.71,344.06,1125.09,556.79Z" transform="translate(-154.25 -91.26)"/><path class="cls-2" d="M556.26,279.22a552.69,552.69,0,0,0-195.67-43.63c-64.67,1.55-113.82,27.13-122.42,62.32-1.68,6.87-2.35,16.3,1.16,28.42,6.91-13.22,22.7-38.58,53-55.53,63.24-35.32,131.1-1.4,137.39,1.87l148.62,39.26-47.67,16.82a203.53,203.53,0,0,0-47.67,43c-41.84,52.12-49.33,115.79-43.93,117.77,4.38,1.6,11.6-39.29,50.47-82.26,17-18.75,55.4-54.95,115.41-69.86a225.78,225.78,0,0,1,72.46-5.84,286.85,286.85,0,0,1,172.43-23.07c23.06,1.13,53.1,6.11,82.74,23.07,39,22.33,60.62,55.86,65.42,52.34,3.4-2.49-4.35-21.54-15.89-37.39-5.28-7.26-22.16-28.69-74.77-50.47-32.14-13.31-60.38-25-98.14-25.24-61.68-.39-100.94,30.07-105.71,22.09s34.16-40.37,60.85-58.54c24.38-16.6,54.19-32.06,89.72-39.26,19-3.85,29.25-3.21,33.65-2.8,32.72,3.06,53.84,22.45,55.15,20.56,1.17-1.68-14.81-18.47-39.26-31.78-10-5.43-37.73-20.15-72.9-20.56C793.37,160.07,765.76,177,712,211a695.33,695.33,0,0,0-72.45,52.65c-19.6-33.42-37.26-62.16-51.86-85.36-41.38-65.77-57.16-85.49-79.44-86.92C489.59,90.14,469.38,102,470,104.43c.4,1.65,10-2,19.63,0,28.9,6,42.13,59.75,55.15,115C550.38,243.33,554,263.85,556.26,279.22Z" transform="translate(-154.25 -91.26)"/><path class="cls-2" d="M594.26,300.46a71.85,71.85,0,0,0,25.91,6.46c22.77,1.31,39.9-8.53,45.85-12.31l-22.14-110-36.81-.52a336.29,336.29,0,0,1-3.13,72.38A343.29,343.29,0,0,1,594.26,300.46Z" transform="translate(-154.25 -91.26)"/></svg>