<svg xmlns="http://www.w3.org/2000/svg" viewBox="0 0 1165.11 1017.83"><defs><style>.cls-1{fill:#ea3d3d;}.cls-2{fill:#009245;}.cls-3{fill:none;stroke:#000;stroke-miterlimit:10;stroke-width:13px;}</style></defs><g id="Layer_1" data-name="Layer 1"><path class="cls-1" d="M1215.27,565.85c-19,277.23-386.06,497.07-679.49,445.11C206.83,952.71,64,789.72,64,536.85S290.62,73.69,624.69,73.69,1232.61,313.57,1215.27,565.85Z" transform="translate(-57.45 -3.81)"/><path class="cls-2" d="M540.7,236.67a655.7,655.7,0,0,0-232.06-51.74c-76.69,1.84-135,32.18-145.18,73.91-2,8.14-2.78,19.32,1.38,33.7,8.2-15.68,26.92-45.75,62.91-65.85,75-41.89,155.47-1.67,162.94,2.22l176.24,46.55-56.53,20a241.61,241.61,0,0,0-56.53,51c-49.61,61.81-58.5,137.32-52.09,139.66,5.18,1.9,13.76-46.59,59.85-97.54,20.13-22.24,65.69-65.17,136.87-82.85a267.64,267.64,0,0,1,85.93-6.93,340.07,340.07,0,0,1,204.48-27.36c27.35,1.34,63,7.25,98.12,27.36,46.27,26.48,71.89,66.25,77.59,62.07,4-2.95-5.16-25.54-18.84-44.34-6.27-8.61-26.29-34-88.68-59.85C919,240.84,885.5,227,840.72,226.69c-73.15-.46-119.71,35.65-125.37,26.19s40.52-47.87,72.16-69.42c28.92-19.69,64.27-38,106.41-46.55,22.58-4.57,34.68-3.82,39.9-3.33,38.81,3.63,63.85,26.63,65.4,24.39,1.39-2-17.56-21.91-46.55-37.69-11.84-6.44-44.74-23.9-86.46-24.38-44.32-.52-77.07,19.59-140.77,59.85a823.44,823.44,0,0,0-85.93,62.43C616.27,178.55,595.33,144.47,578,117,528.94,39,510.23,15.58,483.8,13.87c-22.17-1.43-46.14,12.63-45.45,15.52.47,1.95,11.86-2.38,23.28,0,34.27,7.15,50,70.86,65.4,136.34C533.72,194.11,538,218.45,540.7,236.67Z" transform="translate(-57.45 -3.81)"/><path class="cls-2" d="M585.75,261.86a85,85,0,0,0,30.73,7.67c27,1.54,47.32-10.12,54.37-14.61L644.6,124.51l-43.66-.62a398.94,398.94,0,0,1-3.7,85.84A406.77,406.77,0,0,1,585.75,261.86Z" transform="translate(-57.45 -3.81)"/></g><g id="Layer_2" data-name="Layer 2"><path class="cls-3" d="M235.69,193.36c71.47-56,162.68-96.15,268.62-113.53" transform="translate(-57.45 -3.81)"/><path class="cls-3" d="M235.69,193.36" transform="translate(-57.45 -3.81)"/><path class="cls-3" d="M161.89,265" transform="translate(-57.45 -3.81)"/><path class="cls-3" d="M907.8,131.08c191.28,87.11,319.51,256.22,307.47,431.3-19.08,277.23-386.06,497.05-679.49,445.12C206.84,949.25,64,786.26,64,533.39,64,433.93,99,341.06,161.89,265" transform="translate(-57.45 -3.81)"/><path class="cls-3" d="M552.34,73.62q35.24-3.34,72.34-3.39a690.11,690.11,0,0,1,198.16,29" transform="translate(-57.45 -3.81)"/><path class="cls-3" d="M601.73,151.69Q589,130.93,578,113.49c-49.07-78-67.78-101.37-94.21-103.08C461.63,9,437.66,23,438.36,25.93c.46,1.95,11.86-2.38,23.27,0,34.27,7.11,50,70.85,65.4,136.38,6.69,28.37,10.94,52.71,13.66,70.94a655.25,655.25,0,0,0-232-51.74c-76.7,1.8-135,32.13-145.18,73.88a56.38,56.38,0,0,0-1.5,9.67" transform="translate(-57.45 -3.81)"/><path class="cls-3" d="M601.73,151.69" transform="translate(-57.45 -3.81)"/><path class="cls-3" d="M162,265.05a69.26,69.26,0,0,0,2.87,24c8.2-15.68,26.92-45.74,62.86-65.84,75-41.9,155.47-1.67,162.93,2.2L566.94,272,510.4,291.94a241.48,241.48,0,0,0-56.53,51c-49.62,61.88-58.5,137.33-52.09,139.68,5.19,1.9,13.75-46.6,59.85-97.54,20.16-22.25,65.7-65.23,136.86-82.85a267.9,267.9,0,0,1,85.94-6.94,340.19,340.19,0,0,1,204.48-27.36c27.35,1.34,63,7.25,98.12,27.36,46.25,26.48,71.89,66.25,77.59,62.07,4-3-5.16-25.54-18.85-44.34-6.26-8.61-26.29-34-88.67-59.85-38.11-15.79-71.6-29.65-116.38-29.92C767.57,222.76,721,259,715.35,249.46s40.51-47.88,72.17-69.42c28.91-19.69,64.26-38,106.4-46.55,22.53-4.58,34.68-3.82,39.9-3.33,38.8,3.62,63.85,26.62,65.4,24.39,1.39-2-17.57-21.92-46.55-37.69-11.86-6.45-44.75-23.89-86.46-24.39-44.33-.51-77.08,19.6-140.78,59.86-25.91,16.38-34.54,20.34-65.3,45.87" transform="translate(-57.45 -3.81)"/><path class="cls-3" d="M660.16,198.17l-15.52-77.09L601,120.46a398.23,398.23,0,0,1-3.71,85.83,404.33,404.33,0,0,1-11.48,52.18,84.81,84.81,0,0,0,30.69,7.59c27,1.55,47.32-10.11,54.38-14.6l-10.67-53.29" transform="translate(-57.45 -3.81)"/></g></svg>