<svg id="Layer_1" data-name="Layer 1" xmlns="http://www.w3.org/2000/svg" viewBox="0 0 984.5 860.31"><defs><style>.cls-1{fill:none;stroke:#000;stroke-miterlimit:10;stroke-width:13px;}</style></defs><path class="cls-1" d="M299.07,242.7c60.27-47.2,137.18-81.08,226.51-95.74" transform="translate(-147.75 -81.84)"/><path class="cls-1" d="M299.07,242.7" transform="translate(-147.75 -81.84)"/><path class="cls-1" d="M236.84,303.09" transform="translate(-147.75 -81.84)"/><path class="cls-1" d="M865.82,190.18c161.29,73.45,269.42,216.05,259.27,363.69C1109,787.64,799.55,973,552.12,929.21,274.74,880.09,154.25,742.65,154.25,529.42c0-83.87,29.57-162.18,82.59-226.33" transform="translate(-147.75 -81.84)"/><path class="cls-1" d="M566.08,141.73q29.71-2.83,61-2.86a581.52,581.52,0,0,1,167.1,24.43" transform="translate(-147.75 -81.84)"/><path class="cls-1" d="M607.73,207.56c-7.15-11.67-13.85-22.43-20-32.21-41.38-65.76-57.16-85.48-79.44-86.92-18.7-1.21-38.91,10.65-38.32,13.08.39,1.65,10-2,19.62,0,28.9,6,42.13,59.75,55.15,115,5.64,23.93,9.22,44.45,11.52,59.82a552.69,552.69,0,0,0-195.67-43.63C295.92,234.22,246.77,259.8,238.17,295a48.14,48.14,0,0,0-1.26,8.16" transform="translate(-147.75 -81.84)"/><path class="cls-1" d="M607.73,207.56" transform="translate(-147.75 -81.84)"/><path class="cls-1" d="M236.91,303.15a58.36,58.36,0,0,0,2.42,20.26c6.91-13.22,22.7-38.57,53-55.52,63.24-35.33,131.1-1.41,137.39,1.86L578.39,309l-47.67,16.82a203.76,203.76,0,0,0-47.67,43C441.21,421,433.72,484.62,439.12,486.6c4.38,1.6,11.6-39.29,50.47-82.25,17-18.76,55.4-55,115.41-69.86a225.83,225.83,0,0,1,72.46-5.85,286.85,286.85,0,0,1,172.43-23.07c23.06,1.13,53.1,6.11,82.74,23.07,39,22.33,60.62,55.86,65.42,52.34,3.4-2.49-4.35-21.54-15.89-37.39-5.28-7.26-22.17-28.69-74.77-50.47-32.14-13.31-60.38-25-98.14-25.23C747.57,267.49,708.31,298,703.54,290s34.16-40.37,60.85-58.54c24.38-16.6,54.19-32.06,89.72-39.25,19-3.86,29.25-3.22,33.65-2.81,32.72,3.06,53.84,22.45,55.15,20.57,1.17-1.69-14.82-18.48-39.26-31.78-10-5.44-37.73-20.15-72.9-20.57-37.38-.43-65,16.53-118.71,50.48-21.85,13.81-29.13,17.15-55.07,38.68" transform="translate(-147.75 -81.84)"/><path class="cls-1" d="M657,246.75l-13.09-65-36.81-.53a336.26,336.26,0,0,1-3.13,72.38,342.53,342.53,0,0,1-9.68,44A71.43,71.43,0,0,0,620.17,304c22.77,1.31,39.9-8.53,45.85-12.31l-9-44.94" transform="translate(-147.75 -81.84)"/></svg>